<?xml version="1.0" standalone="no"?>
<svg
  width="600"
  height="600"
  viewBox="0 0 600 600"
  xmlns="http://www.w3.org/2000/svg"
>
  <g transform="translate(300,300)">
    <path d="M133.2,-208.2C165.7,-186.2,180.7,-137.8,198.4,-92.5C216.2,-47.2,236.8,-5.1,231.1,33.1C225.5,71.4,193.6,105.8,161.3,135.6C129,165.4,96.2,190.6,57.8,206.1C19.4,221.6,-24.5,227.4,-69.5,221.2C-114.4,215,-160.4,196.9,-197.5,165C-234.5,133.1,-262.8,87.5,-262,42.3C-261.3,-2.8,-231.6,-47.5,-205.8,-89.8C-180,-132.1,-158.1,-172.1,-124.5,-193.5C-90.8,-215,-45.4,-218,2.4,-221.8C50.3,-225.6,100.6,-230.1,133.2,-208.2Z" fill="#F2B324" />
  </g>
</svg>
    