<?xml version="1.0" standalone="no"?>
<svg
  width="600"
  height="600"
  viewBox="0 0 600 600"
  xmlns="http://www.w3.org/2000/svg"
>
  <g transform="translate(300,300)">
    <path d="M57.7,-85.1C97.7,-64,168.9,-86.9,192.6,-76C216.2,-65,192.2,-20.4,165.2,9.1C138.1,38.6,108,53,84.4,64.4C60.9,75.7,44,83.9,19.6,111.3C-4.7,138.8,-36.4,185.5,-63.2,189.5C-90,193.4,-111.9,154.7,-131.7,120.5C-151.5,86.2,-169.3,56.6,-168.7,27.3C-168.1,-1.9,-149.1,-30.6,-138.6,-67.4C-128.2,-104.1,-126.3,-148.8,-104.6,-178.2C-82.9,-207.7,-41.4,-221.8,-16.3,-196.5C8.8,-171.1,17.7,-106.1,57.7,-85.1Z" fill="#F2B324" />
  </g>
</svg>
    